# xmcd
#
# Track frame offsets:
#	150
#	19833
#	33836
#	54606
#	76589
#	97745
#	116342
#	133674
#	153954
#	169383
#	184556
#	201868
#	220786
#	241679
#
# Disc length: 3426 seconds
#
# Revision: 1
# Processed by: cddbd v1.5.2PL0 Copyright (c) Steve Scherf et al.
# Submitted via: audiograbber 1.83.01
#
DISCID=a50d600e
DTITLE=Court Yard Hounds - Court Yard Hounds [Deluxe Edition]
DYEAR=2010
DGENRE=Country
TTITLE0=Skyline
TTITLE1=The Coast
TTITLE2=Delight (Something New Under The Sun)
TTITLE3=See You In The Spring (Duet With Jakob Dylan)
TTITLE4=Ain't No Son
TTITLE5=Fairytale
TTITLE6=I Miss You
TTITLE7=Gracefully
TTITLE8=April's Love
TTITLE9=Then Again
TTITLE10=It Didn't Make A Sound
TTITLE11=Fear Of Wasted Time
TTITLE12=Well Behaved
TTITLE13=Straw Cage
EXTD=
EXTT0=
EXTT1=
EXTT2=
EXTT3=
EXTT4=
EXTT5=
EXTT6=
EXTT7=
EXTT8=
EXTT9=
EXTT10=
EXTT11=
EXTT12=
EXTT13=
PLAYORDER=
